# AST/ASF file generated using VICON BodyLanguage
# -----------------------------------------------
:version 1.10
:name VICON
:units
  mass 1.0
  length 0.45
  angle deg
:documentation
   .ast/.asf automatically generated from VICON data using
   VICON BodyBuilder and BodyLanguage model FoxedUp or BRILLIANT.MOD
:root
   order TX TY TZ RX RY RZ
   axis XYZ
   position 0 0 0  
   orientation 0 0 0 
:bonedata
  begin
     id 1 
     name lhipjoint
     direction 0.573633 -0.743009 0.344793 
     length 2.46257 
     axis 0 0 0  XYZ
  end
  begin
     id 2 
     name lfemur
     direction 0.34202 -0.939693 0  
     length 7.3842  
     axis 0 0 20  XYZ
    dof rx ry rz
    limits (-160.0 20.0)
           (-70.0 70.0)
           (-60.0 70.0)
  end
  begin
     id 3 
     name ltibia
     direction 0.34202 -0.939693 0   
     length 7.50407   
     axis 0 0 20   XYZ
    dof rx
    limits (-10.0 170.0)
  end
  begin
     id 4 
     name lfoot
     direction 0.110749 -0.304281 0.946123   
     length 1.95925   
     axis -90 7.62852e-016 20   XYZ
    dof rx rz
    limits (-45.0 90.0)
           (-70.0 20.0)
  end
  begin
     id 5 
     name ltoes
     direction 1.53554e-011 -4.21843e-011 1   
     length 0.978318   
     axis -90 7.62852e-016 20   XYZ
    dof rx
    limits (-90.0 20.0)
  end
  begin
     id 6 
     name rhipjoint
     direction -0.488109 -0.791693 0.367385   
     length 2.31113  
     axis 0 0 0  XYZ 
  end
  begin
     id 7 
     name rfemur
     direction -0.34202 -0.939693 0   
     length 7.40965   
     axis 0 0 -20   XYZ
    dof rx ry rz
    limits (-160.0 20.0)
           (-70.0 70.0)
           (-70.0 60.0)
  end
  begin
     id 8 
     name rtibia
     direction -0.34202 -0.939693 0   
     length 7.55548   
     axis 0 0 -20   XYZ
    dof rx
    limits (-10.0 170.0)
 end
 begin
     id 9 
     name rfoot
     direction -0.127594 -0.350561 0.927808   
     length 2.07199  
     axis -90 -7.62852e-016 -20   XYZ
    dof rx rz
    limits (-45.0 90.0)
           (-20.0 70.0)
  end
  begin
     id 10 
     name rtoes
     direction -1.53542e-011 -4.21909e-011 1   
     length 1.02667   
     axis -90 -7.62852e-016 -20   XYZ
    dof rx
    limits (-90.0 20.0)
  end
  begin
     id 11 
     name lowerback
     direction -0.0103342 0.997298 -0.0727278   
     length 2.02836   
     axis 0 0 0   XYZ
    dof rx ry rz
    limits (-20.0 45.0)
           (-30.0 30.0)
           (-30.0 30.0)
  end
  begin
     id 12 
     name upperback
     direction 0.0171146 0.999786 -0.011606   
     length 2.03179   
     axis 0 0 0   XYZ
    dof rx ry rz
    limits (-20.0 45.0)
           (-30.0 30.0)
           (-30.0 30.0)
  end
  begin
     id 13 
     name thorax
     direction 0.0216927 0.999513 0.0224343   
     length 2.03882   
     axis 0 0 0   XYZ
    dof rx ry rz
    limits (-20.0 45.0)
           (-30.0 30.0)
           (-30.0 30.0)
  end
  begin
     id 14 
     name lowerneck
     direction 0.000989287 0.993907 0.110221   
     length 1.75428   
     axis 0 0 0   XYZ
    dof rx ry rz
    limits (-20.0 45.0)
           (-30.0 30.0)
           (-30.0 30.0)
  end
  begin
     id 15 
     name upperneck
     direction -0.0172474 0.994813 -0.100253   
     length 1.77058   
     axis 0 0 0   XYZ
    dof rx ry rz
    limits (-20.0 45.0)
           (-30.0 30.0)
           (-30.0 30.0)
  end
  begin
     id 16
     name head
     direction -0.00486455 0.99894 -0.0457663  
     length 1.77427  
     axis 0 0 0   XYZ
    dof rx ry rz
    limits (-20.0 45.0)
           (-30.0 30.0)
           (-30.0 30.0)
  end
  begin
     id 17 
     name lclavicle
     direction 0.927314 0.333734 -0.169441  
     length 3.97584  
     axis 0 0 0   XYZ
    dof ry rz
    limits (-20.0 10.0)
           (0.0 20.0)
  end
  begin
     id 18 
     name lhumerus
     direction 1 -4.48965e-011 -3.25313e-028   
     length 4.76468   
     axis 180 -30 -90   XYZ
    dof rx ry rz
    limits (-60.0 90.0)
           (-90.0 90.0)
           (-90.0 90.0)
  end
  begin
     id 19
     name lradius
     direction 1 -4.48969e-011 -2.8465e-028   
     length 3.52712   
     axis -180 -30 -90   XYZ
    dof rx
    limits (-10.0 170.0)
  end
  begin
     id 20
     name lwrist
     direction 1 -4.4896e-011 -7.78665e-028   
     length 1.76356   
     axis 1.91374e-015 90 90   XYZ
    dof ry
    limits (-180.0 0.0)
 end
  begin
     id 21 
     name lhand
     direction 1 -4.48959e-011 -1.55733e-027   
     length 0.859564   
     axis 9.9371e-016 90 90   XYZ
    dof rx rz
    limits (-90.0 90.0)
           (-45.0 45.0)
  end
  begin
     id 22 
     name lfingers
     direction 1 -4.48965e-011 -3.11466e-027   
     length 0.693002   
     axis 1.98742e-015 90 90   XYZ
    dof rx
    limits (0.0 90.0)
  end
  begin
     id 23
     name lthumb
     direction 0.707107 -6.34948e-011 0.707107   
     length 0.995017   
     axis -90 45 2.85299e-015   XYZ
    dof rx rz
    limits (-45.0 45.0)
           (-45.0 45.0)
  end
  begin
     id 24 
     name rclavicle
     direction -0.899388 0.348209 -0.264294   
     length 3.68366  
     axis 0 0 0   XYZ 
    dof ry rz
    limits (-10.0 20.0)
           (-20.0 0.0)
  end
  begin
     id 25 
     name rhumerus
     direction -1 -4.48965e-011 -3.01536e-027  
     length 4.90577   
     axis 180 30 90   XYZ
    dof rx ry rz
    limits (-90.0 60.0)
           (-90.0 90.0)
           (-90.0 90.0)
  end
  begin
     id 26 
     name rradius
     direction -1 -4.48966e-011 3.93291e-027   
     length 3.42692   
     axis -180 30 90   XYZ
    dof rx
    limits (-10.0 170.0)
  end
  begin
     id 27 
     name rwrist
     direction -1 -4.48969e-011 -7.78665e-028   
     length 1.71346   
     axis 1.91374e-015 -90 -90   XYZ
    dof ry
    limits (-180.0 0.0)
  end
  begin
     id 28
     name rhand
     direction -1 -4.48967e-011 -1.55733e-027   
     length 0.740957   
     axis 9.9371e-016 -90 -90   XYZ
    dof rx rz
    limits (-90.0 90.0)
           (-45.0 45.0)
  end
  begin
     id 29
     name rfingers
     direction -1 -4.48949e-011 -3.11466e-027   
     length 0.597378   
     axis 1.98742e-015 -90 -90   XYZ
    dof rx
    limits (0.0 90.0)
  end
  begin
     id 30
     name rthumb
     direction -0.707107 -6.34931e-011 0.707107   
     length 0.857719   
     axis -90 -45 -2.85299e-015   XYZ
    dof rx rz
    limits (-45.0 45.0)
           (-45.0 45.0)
  end
:hierarchy
  begin
    root lhipjoint rhipjoint lowerback
    lhipjoint lfemur
    lfemur ltibia
    ltibia lfoot
    lfoot ltoes
    rhipjoint rfemur
    rfemur rtibia
    rtibia rfoot
    rfoot rtoes
    lowerback upperback
    upperback thorax
    thorax lowerneck lclavicle rclavicle
    lowerneck upperneck
    upperneck head
    lclavicle lhumerus
    lhumerus lradius
    lradius lwrist
    lwrist lhand lthumb
    lhand lfingers
    rclavicle rhumerus
    rhumerus rradius
    rradius rwrist
    rwrist rhand rthumb
    rhand rfingers
  end

#!OML:ASF E:\I on waltz\AllaLogoMonkeySwing\Project 1\Capture day 1\Session 1\Subject1.ASF
:FULLY-SPECIFIED
:DEGREES
64
root 1.60334 10.1178 -0.125369 8.23961 5.82962 -3.18875
lowerback 52.2668 -0.449253 0.507289
upperback 10.2178 0.000107244 1.15533
thorax -9.42989 -0.0258711 1.0241
lowerneck -8.08838 0.241969 -2.81764
upperneck 0.374147 0.539468 2.01064
head 1.48053 0.308363 1.13363
rclavicle 1.98785e-016 2.5842e-015
rhumerus -7.80486 -6.33204 -77.2505
rradius 61.9057
rwrist -5.05034
rhand -5.9315 -36.2155
rfingers 7.12502
rthumb 19.8982 -65.2168
lclavicle 1.98785e-016 2.5842e-015
lhumerus -15.1214 11.2645 82.8127
lradius 72.7805
lwrist 8.24201
lhand -10.5055 -17.477
lfingers 7.12502
lthumb 15.4968 11.9219
rfemur -100.987 -18.482 32.4953
rtibia 114.541
rfoot -23.4929 -3.25453
rtoes 18.8168
lfemur -98.6782 8.15152 -22.4043
ltibia 114.951
lfoot -28.8344 -7.77034
ltoes -11.6492
65
root 1.58409 9.90924 -0.204031 7.2959 5.77729 -3.22382
lowerback 51.6294 -0.407379 0.465535
upperback 10.3282 -0.000943625 1.02271
thorax -9.22994 -0.0195818 0.895406
lowerneck -7.80742 0.180991 -2.97914
upperneck -0.474985 0.462802 2.533
head 1.1624 0.281985 1.31621
rclavicle -2.98177e-015 1.70955e-014
rhumerus -8.12833 -6.76395 -77.5542
rradius 61.718
rwrist -4.72218
rhand -6.22281 -35.7901
rfingers 7.12502
rthumb 19.6182 -64.8202
lclavicle -2.98177e-015 1.70955e-014
lhumerus -14.8465 11.2453 82.9433
lradius 72.4971
lwrist 8.86815
lhand -10.5613 -17.4289
lfingers 7.12502
lthumb 15.4431 11.9742
rfemur -101.862 -18.5965 32.67
rtibia 115.861
rfoot -23.0569 -3.20162
rtoes 19.6132
lfemur -99.5214 8.38307 -22.47
ltibia 116.311
lfoot -28.4432 -7.834
ltoes -11.9689
66
root 1.56702 9.70209 -0.277689 6.45705 5.78671 -3.28618
lowerback 50.5604 -0.481942 0.507495
upperback 10.4517 -0.101632 0.868362
thorax -8.95408 -0.056487 0.746124
lowerneck -7.39009 0.150621 -3.02799
upperneck -1.33514 0.422808 2.89211
head 0.819356 0.267076 1.42806
rclavicle -1.98785e-015 1.41137e-014
rhumerus -8.48599 -7.04266 -77.9217
rradius 61.9533
rwrist -5.27835
rhand -5.844 -36.3407
rfingers 7.12502
rthumb 19.9823 -65.3333
lclavicle -1.98785e-015 1.41137e-014
lhumerus -14.6803 11.2217 82.9674
lradius 72.1294
lwrist 9.46661
lhand -10.6014 -17.4878
lfingers 7.12502
lthumb 15.4044 11.9182
rfemur -102.877 -18.7567 32.9359
rtibia 117.116
rfoot -22.5935 -3.20355
rtoes 19.803
lfemur -100.509 8.56242 -22.5481
ltibia 117.569
lfoot -27.9913 -7.90311
ltoes -12.7857
67
root 1.54838 9.52304 -0.353573 5.23314 5.77109 -3.2403
lowerback 49.8653 -0.500751 0.453953
upperback 10.5303 -0.181164 0.695967
thorax -8.77093 -0.0836912 0.614737
lowerneck -7.05712 0.0796316 -2.96962
upperneck -2.08746 0.325817 3.20889
head 0.529655 0.220154 1.50915
rclavicle 1.15295e-014 -1.94809e-014
rhumerus -8.91971 -7.37535 -78.2954
rradius 62.2218
rwrist -5.77723
rhand -5.45776 -36.7425
rfingers 7.12502
rthumb 20.3535 -65.6959
lclavicle 1.15295e-014 -1.94809e-014
lhumerus -14.6207 11.069 82.986
lradius 71.8212
lwrist 9.8781
lhand -10.5648 -17.6071
lfingers 7.12502
lthumb 15.4397 11.7963
rfemur -103.177 -19.0897 32.9484
rtibia 118.162
rfoot -22.2677 -3.12408
rtoes 19.8171
lfemur -100.762 8.78833 -22.6777
ltibia 118.592
lfoot -27.7204 -7.88098
ltoes -14.112
68
root 1.52523 9.38985 -0.439081 3.40579 5.60443 -3.12759
lowerback 49.9008 -0.355874 0.183203
upperback 10.5398 -0.164705 0.550138
thorax -8.76567 -0.0708199 0.576382
lowerneck -6.89196 0.0269488 -2.88714
upperneck -2.6419 0.256668 3.56825
head 0.331372 0.18655 1.60437
rclavicle 7.55382e-015 -2.5842e-015
rhumerus -9.33552 -7.69458 -78.6544
rradius 62.3334
rwrist -5.96479
rhand -5.38278 -36.6113
rfingers 7.12502
rthumb 20.4256 -65.557
lclavicle 7.55382e-015 -2.5842e-015
lhumerus -14.6371 10.8706 83.044
lradius 71.642
lwrist 10.1692
lhand -10.3827 -17.658
lfingers 7.12502
lthumb 15.6151 11.7317
rfemur -102.354 -19.4947 32.5701
rtibia 118.838
rfoot -22.0233 -2.74068
rtoes 20.6384
lfemur -99.9202 9.28428 -22.7498
ltibia 119.3
lfoot -27.6245 -7.94207
ltoes -15.0735
69
root 1.49552 9.29857 -0.534706 1.21047 5.21595 -2.96267
lowerback 50.4957 -0.00799146 -0.318097
upperback 10.4662 -0.02165 0.448375
thorax -8.92981 -0.0048272 0.640087
lowerneck -6.7222 -0.0323431 -2.95514
upperneck -3.22526 0.194638 4.00381
head 0.124053 0.156317 1.75243
rclavicle 1.03368e-014 -1.39149e-015
rhumerus -9.78275 -7.96569 -79.0006
rradius 62.5962
rwrist -6.1264
rhand -5.65971 -36.4504
rfingers 7.12502
rthumb 20.1594 -65.4244
lclavicle 1.03368e-014 -1.39149e-015
lhumerus -14.5202 10.8141 83.234
lradius 71.3643
lwrist 10.2064
lhand -10.1836 -17.868
lfingers 7.12502
lthumb 15.8068 11.5067
rfemur -100.721 -19.7189 31.8915
rtibia 119.111
rfoot -21.7201 -2.13769
rtoes 22.3174
lfemur -98.2868 10.1678 -22.7487
ltibia 119.647
lfoot -27.647 -8.1444
ltoes -15.5871
70
root 1.45587 9.26959 -0.639676 -1.44847 4.49884 -2.67629
lowerback 51.9873 0.669457 -1.1594
upperback 10.2496 0.309694 0.354531
thorax -9.36101 0.143942 0.782732
lowerneck -6.51113 -0.0869937 -2.95784
upperneck -3.91105 0.14005 4.35888
head -0.122806 0.125886 1.86471
rclavicle 2.3059e-014 -1.0138e-014
rhumerus -10.2589 -8.31704 -79.4635
rradius 62.9657
rwrist -6.01206
rhand -6.19406 -36.2213
rfingers 7.12502
rthumb 19.6458 -65.2486
lclavicle 2.3059e-014 -1.0138e-014
lhumerus -14.317 10.7351 83.4456
lradius 71.1047
lwrist 10.1755
lhand -10.19 -18.2865
lfingers 7.12502
lthumb 15.8006 11.0887
rfemur -97.833 -19.626 30.9103
rtibia 118.965
rfoot -21.7072 -1.86133
rtoes 23.1703
lfemur -95.4497 11.5996 -22.6316
ltibia 119.554
lfoot -28.0208 -8.44628
ltoes -15.6297
71
root 1.40503 9.3104 -0.759424 -4.15025 3.61934 -2.54409
lowerback 53.5893 1.50639 -1.94258
upperback 10.017 0.819452 0.314431
thorax -9.80236 0.36873 0.864635
lowerneck -6.31461 -0.132807 -2.87462
upperneck -4.61179 0.0958005 4.61989
head -0.372859 0.0973323 1.9335
rclavicle -1.11319e-014 -1.59028e-015
rhumerus -10.7132 -8.89179 -80.0512
rradius 63.3692
rwrist -5.58281
rhand -6.25895 -36.128
rfingers 7.12502
rthumb 19.5834 -65.1617
lclavicle -1.11319e-014 -1.59028e-015
lhumerus -14.1888 10.4172 83.6157
lradius 71.0944
lwrist 10.3891
lhand -10.3335 -18.639
lfingers 7.12502
lthumb 15.6625 10.747
rfemur -94.1593 -19.1602 30.1141
rtibia 118.307
rfoot -21.9011 -1.91294
rtoes 23.7028
lfemur -91.9895 13.4524 -22.1355
ltibia 118.989
lfoot -28.5822 -9.10651
ltoes -15.24
72
root 1.35803 9.32198 -0.847315 -6.08522 3.02003 -2.73074
lowerback 53.8755 2.00252 -2.17965
upperback 10.0179 1.2526 0.339005
thorax -9.83724 0.555521 0.804755
lowerneck -6.12372 -0.204501 -2.85986
upperneck -5.24534 0.0207488 4.81936
head -0.600361 0.0531869 1.99597
rclavicle -9.54166e-015 2.78299e-015
rhumerus -11.219 -9.53707 -80.6463
rradius 63.8675
rwrist -5.54965
rhand -6.23822 -36.2624
rfingers 7.12502
rthumb 19.6033 -65.2941
lclavicle -9.54166e-015 2.78299e-015
lhumerus -13.9619 10.2448 83.9226
lradius 71.1286
lwrist 10.5978
lhand -10.4782 -18.7235
lfingers 7.12502
lthumb 15.5231 10.6734
rfemur -91.7587 -18.7827 29.9784
rtibia 117.864
rfoot -21.822 -1.93373
rtoes 24.3317
lfemur -89.8987 14.965 -21.3936
ltibia 118.633
lfoot -28.6803 -10.1321
ltoes -14.698
73
root 1.32297 9.33328 -0.926877 -7.49464 2.6733 -2.66478
lowerback 53.2416 2.2823 -2.39886
upperback 10.2349 1.47593 0.321534
thorax -9.53107 0.65311 0.794642
lowerneck -6.04007 -0.279098 -2.87306
upperneck -5.70345 -0.0637943 4.85635
head -0.754983 0.00690086 2.01103
rclavicle 1.27222e-014 4.77083e-015
rhumerus -11.6415 -10.1648 -81.2357
rradius 64.1734
rwrist -5.9157
rhand -6.84206 -36.2966
rfingers 7.12502
rthumb 19.0227 -65.3863
lclavicle 1.27222e-014 4.77083e-015
lhumerus -13.9884 10.3306 84.3189
lradius 70.9631
lwrist 10.8425
lhand -10.8706 -19.0081
lfingers 7.12502
lthumb 15.1451 10.4178
rfemur -90.1112 -18.7388 29.7748
rtibia 117.482
rfoot -21.5692 -1.83692
rtoes 24.067
lfemur -88.3855 15.8137 -21.0028
ltibia 118.217
lfoot -28.3453 -11.0629
ltoes -13.9229
74
root 1.29068 9.34243 -0.995381 -8.73849 2.29367 -2.39762
lowerback 52.2007 2.56776 -2.7533
upperback 10.5184 1.6524 0.270216
thorax -9.09973 0.731243 0.838595
lowerneck -5.9593 -0.332325 -3.03254
upperneck -5.99117 -0.116779 4.92112
head -0.857235 -0.0195409 2.06185
rclavicle 1.27222e-014 -1.43125e-014
rhumerus -12.0044 -10.7716 -81.7992
rradius 64.1676
rwrist -6.30622
rhand -7.72025 -36.1989
rfingers 7.12502
rthumb 18.178 -65.3695
lclavicle 1.27222e-014 -1.43125e-014
lhumerus -14.1773 10.5967 84.7163
lradius 71.0559
lwrist 11.1992
lhand -11.1191 -18.8896
lfingers 7.12502
lthumb 14.9057 10.5541
rfemur -88.6241 -18.6194 29.3848
rtibia 117.155
rfoot -21.3413 -1.75661
rtoes 23.3864
lfemur -86.8696 16.6125 -20.8278
ltibia 117.833
lfoot -28.2522 -11.5964
ltoes -14.0172
75
root 1.25729 9.34685 -1.05199 -10.0615 1.80254 -2.29849
lowerback 51.2359 2.81835 -3.00372
upperback 10.6991 1.85328 0.279926
thorax -8.78779 0.817257 0.892804
lowerneck -5.91791 -0.351359 -3.35572
upperneck -6.00704 -0.122016 5.05005
head -0.869409 -0.0166979 2.16288
rclavicle 1.31198e-014 -9.14409e-015
rhumerus -12.4566 -11.0519 -82.2386
rradius 64.1488
rwrist -6.8262
rhand -8.3202 -36.0622
rfingers 7.12502
rthumb 17.6007 -65.2855
lclavicle 1.31198e-014 -9.14409e-015
lhumerus -14.6848 10.9082 85.0197
lradius 71.3476
lwrist 11.8276
lhand -11.2199 -18.6432
lfingers 7.12502
lthumb 14.8086 10.8077
rfemur -86.9993 -18.2995 29.1252
rtibia 116.879
rfoot -21.1944 -1.77175
rtoes 22.9926
lfemur -85.2165 17.6403 -20.4106
ltibia 117.525
lfoot -28.4538 -12.0548
ltoes -13.3834
